# xmcd
# Track frame offsets:
# 150
# 19390
# 33745
# 53055
# 68165
# 82345
# 99290
# 115310
# 130705
# 150495
# 166010
# 181325
#
# Disc length: 2631 seconds
# Revision: 0
# Processed by: cddbd v1.5.1PL2 Copyright (c) Steve Scherf et al.
# Submitted via: VisiTrax 2.9.10.228 - For more info visit www.synapsa.com
#
DISCID=970a450c
DTITLE=Leigh.Shaza - My Way Of Life
DYEAR=2003
DGENRE=Country
TTITLE0=Be The Best That You Can Be.
TTITLE1=I'll Pick Up The Pieces.
TTITLE2=After All These yaers.
TTITLE3=Key To The Door.
TTITLE4=How Lucky I Am.
TTITLE5=Ghosts Of Bungendore.The
TTITLE6=Married To The Land.
TTITLE7=Just My Way Of Life.
TTITLE8=Someone Like You.
TTITLE9=Stand On My Own Two Feet Again.
TTITLE10=Jandle Of Spurs.The.
TTITLE11=Treat Me Like A Woman Tonight.
EXTD=
EXTT0=
EXTT1=
EXTT2=
EXTT3=
EXTT4=
EXTT5=
EXTT6=
EXTT7=
EXTT8=
EXTT9=
EXTT10=
EXTT11=
PLAYORDER=
